<svg xmlns="http://www.w3.org/2000/svg" width="275.662" height="213.348" viewBox="0 0 275.662 213.348"><ellipse cx="14.678" cy="29.949" rx="14.678" ry="29.949" transform="translate(196.346 134.306)" fill="#595f71"/><path d="M834.747,639.188c5.879-35.271.059-70.415,0-70.765l-1.143.194c.059.349,5.845,35.308,0,70.381Z" transform="translate(-625.079 -425.911)" fill="#cacaca"/><rect width="1.16" height="15.052" transform="translate(197.553 158.838) rotate(-61.858)" fill="#cacaca"/><rect width="15.053" height="1.16" transform="translate(211.563 168.476) rotate(-28.158)" fill="#cacaca"/><ellipse cx="28.709" cy="58.577" rx="28.709" ry="58.577" transform="translate(217.583 58.279)" fill="#e6e6e6"/><path d="M945.2,481.648c11.483-68.9.116-137.54,0-138.225l-1.144.194c.116.684,11.449,69.143,0,137.841Z" transform="translate(-702.104 -269.001)" fill="#cacaca"/><rect width="1.16" height="29.441" transform="translate(220.206 105.773) rotate(-61.858)" fill="#cacaca"/><rect width="29.441" height="1.16" transform="translate(247.608 125.596) rotate(-28.158)" fill="#cacaca"/><path d="M381.3,568.668H228.6a2.121,2.121,0,0,1-2.118-2.118V470.06a2.121,2.121,0,0,1,2.118-2.118H381.3a2.121,2.121,0,0,1,2.118,2.118v96.49a2.121,2.121,0,0,1-2.118,2.118Z" transform="translate(-201.684 -355.838)" fill="#e4e4e4"/><path d="M277.791,506.579a.909.909,0,0,0-.908.908v75.526a.909.909,0,0,0,.908.908H402.408a.909.909,0,0,0,.908-.908V507.487a.909.909,0,0,0-.908-.908Z" transform="translate(-236.835 -382.783)" fill="#fff"/><path d="M399.6,525.334v-4.786H381.974V505.579h-4.786v14.969H345.814V505.579h-4.786v14.969H292.637V505.579h-4.786v14.969H271.117v4.786h16.733v18.612H271.117v4.786h16.733v19.941H271.117v4.786h42.524v10.066h4.786V573.46h22.6v10.066h4.786V573.46H399.6v-4.786H345.814V548.732H399.6v-4.786H381.974V525.334Zm-58.569,0v5.849H292.637v-5.849ZM292.637,535.97h48.391v7.977H292.637Zm0,32.7V548.732h21v19.941Zm48.391,0h-22.6V548.732h22.6Zm36.16-24.727H345.814V525.334h31.374Z" transform="translate(-232.814 -382.086)" fill="#e6e6e6"/><circle cx="6.115" cy="6.115" r="6.115" transform="translate(104.491 158.744)" fill="#f9a826"/><path d="M275.542,703.474H0v-.66H275.662Z" transform="translate(0 -490.126)" fill="#cacaca"/><circle cx="37.724" cy="37.724" r="37.724" transform="translate(73.616 53.084)" fill="#f5b870"/><path d="M314.207,408.222l-11.918-20.359L290.371,367.5l23.59-.142,23.59-.142-11.672,20.5Z" transform="translate(-202.498 -256.092)" fill="#f5b870"/><circle cx="13.535" cy="13.535" r="13.535" transform="translate(98.108 77.035)" fill="#fff"/><path d="M482.374,97.7s-8.072-2.274-10.46,8.754-.871,9.639-.871,9.639l18.02-2.1S494.482,101.05,482.374,97.7Z" transform="translate(-371.907 -97.502)" fill="#fce7cf"/><path d="M447.018,258.012s-12.178.564-10.069,5.344q.224.507.416.95a85.5,85.5,0,0,0,5.194,10.054l7.485,12.4,2.724-1.513L445.1,265.325l6.889-.562Z" transform="translate(-348.29 -209.438)" fill="#ffb6b6"/><path d="M556.8,273.446l3.937,8.576s2.953,2.953,6.186,14.762,3.937,11.388,3.937,11.388l-3.2,1.064L554.554,285.4l-6.467-8.154,1.968-4.358Z" transform="translate(-425.966 -219.809)" fill="#ffb6b6"/><path d="M473.68,235.093l5.657,10.529s12.825,25.2,11.5,25.118c-1.49-.094-5.675,1.643-6.96,3.329-.62.814-9.684-19.065-12.868-23.51l-6.889-5.343s-19.56,3.292-19.584,2.222c-.012-.524,6.476,12.057,5.145,11.5-1.517-.635-5.085,2.455-6.658,1.816-.649-.264-5.235-11.382-7.091-15.938a2.466,2.466,0,0,1,1.141-3.12c1.4-.726,20.779-5.152,20.779-5.152l-.339-1.731L458.918,232Z" transform="translate(-347.623 -191.298)" fill="#595f71"/><circle cx="5.483" cy="5.483" r="5.483" transform="translate(102.754 16.414) rotate(-80.783)" fill="#ffb6b6"/><path d="M504.864,182.155c.3.908-1.658,1.43-4.391.92-2.365-.441-4.953-.966-6.995-1.39-2.186-.456-3.748-.8-3.748-.8s-.562,3.515-2.39,3.093c-1.575-.363-6.28-16.8-7.553-21.342a1.58,1.58,0,0,1,.7-1.776l6.463-3.947a34.807,34.807,0,0,1,6.078-1.573c1.624-.044,4.436-.465,4.436-.465s3.234.281,3.8,2.671,2.909,16.561,2.952,19.964C504.258,181.247,503.956,179.431,504.864,182.155Z" transform="translate(-378.294 -137.515)" fill="#cacaca"/><path d="M491.48,113.485s-2.274,6.026-7.845,8.527l-.909-5.343Z" transform="translate(-380.385 -108.648)" fill="#fce7cf"/><ellipse cx="0.773" cy="1.476" rx="0.773" ry="1.476" transform="translate(113.615 8.295)" fill="#ffb6b6"/><path d="M471.1,347.592l-10.869,5-.063-.137a4.657,4.657,0,0,1,2.285-6.176h0l6.639-3.052Z" transform="translate(-364.355 -268.863)" fill="#2f2e41"/><path d="M607.433,382.818l6.667-2.989h0a4.657,4.657,0,0,1,6.153,2.344l.062.138L609.4,387.205Z" transform="translate(-467.353 -294.106)" fill="#2f2e41"/><path d="M400.308,104.51l-1.273,14,2.263.107Z" transform="translate(-278.278 -72.883)" opacity="0.2"/><path d="M492.865,221.841a2.765,2.765,0,0,0-.6-4.2l-4.89-24.7-5.616,2.148,6.573,23.606a2.78,2.78,0,0,0,4.538,3.144Z" transform="translate(-379.707 -164.06)" fill="#ffb6b6"/><path d="M486.328,182.8l-6.166,1.086a1.24,1.24,0,0,1-1.454-1.187l-.17-6.24a3.443,3.443,0,0,1,6.785-1.175l1.967,5.9a1.24,1.24,0,0,1-.961,1.612Z" transform="translate(-377.429 -149.754)" fill="#cacaca"/><path d="M524.5,219.86a2.765,2.765,0,0,0,.772-4.168l3.289-24.966-6.008.234-1.344,24.467a2.78,2.78,0,0,0,3.29,4.433Z" transform="translate(-406.615 -162.515)" fill="#ffb6b6"/><path d="M530.287,178.761l-6.189-.949a1.24,1.24,0,0,1-1-1.591l1.84-5.965a3.443,3.443,0,1,1,6.8,1.063l-.03,6.222a1.24,1.24,0,0,1-1.427,1.219Z" transform="translate(-408.504 -146.209)" fill="#cacaca"/></svg>